####
#
# OBJ File Generated by Meshlab
#
####
# Object arc.obj
#
# Vertices: 192
# Faces: 92
#
####
vn -10.988757 -11.153931 1.326945
v -2.983607 13.286405 3.937008
vn -10.988757 -11.153931 1.326945
v -7.691273 17.455984 0.000000
vn -10.988757 -11.153931 1.326945
v -4.858174 14.664840 0.000000
vn -9.917350 -9.059780 2.263670
v -7.691273 17.455984 0.000000
vn -9.917350 -9.059780 2.263670
v -2.983607 13.286405 3.937008
vn -9.917350 -9.059780 2.263670
v -5.284791 15.805411 3.937008
vn 0.000000 0.000000 -48.574982
v -5.449790 19.532036 0.000000
vn 0.000000 0.000000 -23.990587
v -7.691273 17.455984 0.000000
vn 0.000000 0.000000 -11.852629
v -10.969744 19.707331 0.000000
vn 0.000000 0.000000 -59.159328
v -4.858174 14.664840 0.000000
vn 0.000000 0.000000 -141.774918
v -0.192961 17.839006 0.000000
vn 0.000000 0.000000 -41.829803
v -2.558169 11.420321 0.000000
vn 0.000000 0.000000 -32.368660
v -0.862472 7.822885 0.000000
vn 0.000000 0.000000 -95.831100
v 0.176413 3.983920 0.000000
vn 0.000000 0.000000 -301.606232
v 4.391797 14.759947 0.000000
vn 0.000000 0.000000 -154.876907
v 0.526320 0.022292 0.000000
vn 0.000000 0.000000 -23.990591
v -7.691273 -17.411402 0.000000
vn 0.000000 0.000000 -48.574993
v -5.449790 -19.487453 0.000000
vn 0.000000 0.000000 -11.852629
v -10.969744 -19.662748 0.000000
vn 0.000000 0.000000 -59.159336
v -4.858174 -14.620256 0.000000
vn 0.000000 0.000000 -141.774918
v -0.192961 -17.794422 0.000000
vn 0.000000 0.000000 -41.829803
v -2.558169 -11.375737 0.000000
vn 0.000000 0.000000 -32.368660
v -0.862472 -7.778301 0.000000
vn 0.000000 0.000000 -95.831093
v 0.176413 -3.939337 0.000000
vn 0.000000 0.000000 -376.368713
v 4.391797 -14.715364 0.000000
vn 0.000000 0.000000 -226.895355
v 7.947817 10.534390 0.000000
vn 0.000000 0.000000 -146.697083
v 7.947817 -10.489808 0.000000
vn 0.000000 0.000000 -80.358536
v 10.198464 5.491059 0.000000
vn 0.000000 0.000000 -33.040482
v 10.198464 -5.446476 0.000000
vn 0.000000 0.000000 -8.423951
v 10.968652 0.022292 0.000000
vn -12.773698 -9.055139 2.911661
v -4.858174 14.664840 0.000000
vn -12.773698 -9.055139 2.911661
v -2.558169 11.420321 0.000000
vn -12.773698 -9.055139 2.911661
v -2.983607 13.286405 3.937008
vn 0.000000 0.000000 35.608181
v -3.464148 -17.536041 3.937008
vn 0.000000 0.000000 17.586445
v -5.284791 -15.662403 3.937008
vn 0.000000 0.000000 8.688642
v -7.947730 -17.694244 3.937008
vn 0.000000 0.000000 43.367088
v -2.983607 -13.143395 3.937008
vn 0.000000 0.000000 103.928917
v 0.805712 -16.008081 3.937008
vn 0.000000 0.000000 30.663576
v -1.115428 -10.215217 3.937008
vn 0.000000 0.000000 23.728031
v 0.261902 -6.968531 3.937008
vn 0.000000 0.000000 70.249535
v 1.105736 -3.503865 3.937008
vn 0.000000 0.000000 275.899200
v 4.529682 -13.229230 3.937008
vn 0.000000 0.000000 113.533394
v 1.389948 0.071504 3.937008
vn 0.000000 0.000000 221.094162
v 4.529682 13.372238 3.937008
vn 0.000000 0.000000 166.326889
v 7.418059 9.558674 3.937008
vn 0.000000 0.000000 107.537094
v 7.418059 -9.415666 3.937008
vn 0.000000 0.000000 58.907276
v 9.246147 5.007067 3.937008
vn 0.000000 0.000000 24.220518
v 9.246147 -4.864058 3.937008
vn 0.000000 0.000000 6.175233
v 9.871733 0.071504 3.937008
vn 0.000000 0.000000 17.586435
v -5.284791 15.805411 3.937008
vn 0.000000 0.000000 35.608162
v -3.464148 17.679049 3.937008
vn 0.000000 0.000000 8.688638
v -7.947730 17.837252 3.937008
vn 0.000000 0.000000 43.367077
v -2.983607 13.286405 3.937008
vn 0.000000 0.000000 103.928894
v 0.805712 16.151089 3.937008
vn 0.000000 0.000000 30.663574
v -1.115428 10.358225 3.937008
vn 0.000000 0.000000 23.728027
v 0.261902 7.111539 3.937008
vn 0.000000 0.000000 70.249527
v 1.105736 3.646874 3.937008
vn -8.863569 -12.907366 0.006468
v -5.284791 15.805411 3.937008
vn -8.863569 -12.907366 0.006468
v -10.969744 19.707331 0.000000
vn -8.863569 -12.907366 0.006468
v -7.691273 17.455984 0.000000
vn 19.855635 8.860815 5.892148
v 7.947817 10.534390 0.000000
vn 19.855635 8.860815 5.892148
v 9.246147 5.007067 3.937008
vn 19.855635 8.860815 5.892148
v 10.198464 5.491059 0.000000
vn 21.530582 3.032234 5.960893
v 10.198464 5.491059 0.000000
vn 21.530582 3.032234 5.960893
v 9.871733 0.071504 3.937008
vn 21.530582 3.032234 5.960893
v 10.968652 0.022292 0.000000
vn 21.530581 -3.032234 5.656572
v 10.968652 0.022292 0.000000
vn 21.530581 -3.032234 5.656572
v 9.246147 -4.864058 3.937008
vn 21.530581 -3.032234 5.656572
v 10.198464 -5.446476 0.000000
vn 19.855639 -8.860815 5.089261
v 10.198464 -5.446476 0.000000
vn 19.855639 -8.860815 5.089261
v 7.418059 -9.415666 3.937008
vn 19.855639 -8.860815 5.089261
v 7.947817 -10.489808 0.000000
vn 16.636045 -14.000082 4.702081
v 7.947817 -10.489808 0.000000
vn 16.636045 -14.000082 4.702081
v 4.529682 -13.229230 3.937008
vn 16.636045 -14.000082 4.702081
v 4.391797 -14.715364 0.000000
vn 12.122278 -18.050226 6.389006
v 4.529682 -13.229230 3.937008
vn 12.122278 -18.050226 6.389006
v -0.192961 -17.794422 0.000000
vn 12.122278 -18.050226 6.389006
v 4.391797 -14.715364 0.000000
vn 6.665478 -20.696178 7.699704
v 0.805712 -16.008081 3.937008
vn 6.665478 -20.696178 7.699704
v -5.449790 -19.487453 0.000000
vn 6.665478 -20.696178 7.699704
v -0.192961 -17.794422 0.000000
vn 0.690137 -21.732100 10.423631
v -3.464148 -17.536041 3.937008
vn 0.690137 -21.732100 10.423631
v -10.969744 -19.662748 0.000000
vn 0.690137 -21.732100 10.423631
v -5.449790 -19.487453 0.000000
vn -8.863569 12.907366 0.349918
v -7.947730 -17.694244 3.937008
vn -8.863569 12.907366 0.349918
v -7.691273 -17.411402 0.000000
vn -8.863569 12.907366 0.349918
v -10.969744 -19.662748 0.000000
vn -10.988761 11.153931 1.761754
v -5.284791 -15.662403 3.937008
vn -10.988761 11.153931 1.761754
v -4.858174 -14.620256 0.000000
vn -10.988761 11.153931 1.761754
v -7.691273 -17.411402 0.000000
vn -12.773698 9.055139 2.011798
v -1.115428 -10.215217 3.937008
vn -12.773698 9.055139 2.011798
v -2.558169 -11.375737 0.000000
vn -12.773698 9.055139 2.011798
v -4.858174 -14.620256 0.000000
vn -14.163134 6.675973 2.671737
v 0.261902 -6.968531 3.937008
vn -14.163134 6.675973 2.671737
v -0.862472 -7.778301 0.000000
vn -14.163134 6.675973 2.671737
v -2.558169 -11.375737 0.000000
vn -15.114035 4.090099 3.115234
v 1.105736 -3.503865 3.937008
vn -15.114035 4.090099 3.115234
v 0.176413 -3.939337 0.000000
vn -15.114035 4.090099 3.115234
v -0.862472 -7.778301 0.000000
vn -15.596961 1.377584 3.404154
v 1.389948 0.071504 3.937008
vn -15.596961 1.377584 3.404154
v 0.526320 0.022292 0.000000
vn -15.596961 1.377584 3.404154
v 0.176413 -3.939337 0.000000
vn -15.596962 -1.377584 3.563698
v 0.176413 3.983920 0.000000
vn -15.596962 -1.377584 3.563698
v 0.526320 0.022292 0.000000
vn -15.596962 -1.377584 3.563698
v 1.105736 3.646874 3.937008
vn -15.114035 -4.090099 3.577425
v -0.862472 7.822885 0.000000
vn -15.114035 -4.090099 3.577425
v 0.176413 3.983920 0.000000
vn -15.114035 -4.090099 3.577425
v 0.261902 7.111539 3.937008
vn -14.163134 -6.675973 3.389176
v -2.558169 11.420321 0.000000
vn -14.163134 -6.675973 3.389176
v -0.862472 7.822885 0.000000
vn -14.163134 -6.675973 3.389176
v -1.115428 10.358225 3.937008
vn 0.690137 21.732100 9.793005
v -7.947730 17.837252 3.937008
vn 0.690137 21.732100 9.793005
v -5.449790 19.532036 0.000000
vn 0.690137 21.732100 9.793005
v -10.969744 19.707331 0.000000
vn 6.665470 20.696178 6.379086
v -3.464148 17.679049 3.937008
vn 6.665470 20.696178 6.379086
v -0.192961 17.839006 0.000000
vn 6.665470 20.696178 6.379086
v -5.449790 19.532036 0.000000
vn 12.122282 18.050226 4.663720
v 0.805712 16.151089 3.937008
vn 12.122282 18.050226 4.663720
v 4.391797 14.759947 0.000000
vn 12.122282 18.050226 4.663720
v -0.192961 17.839006 0.000000
vn 16.636049 14.000082 5.708190
v 4.391797 14.759947 0.000000
vn 16.636049 14.000082 5.708190
v 7.418059 9.558674 3.937008
vn 16.636049 14.000082 5.708190
v 7.947817 10.534390 0.000000
vn -11.528267 -7.355036 2.240420
v -2.983607 13.286405 3.937008
vn -11.528267 -7.355036 2.240420
v -2.558169 11.420321 0.000000
vn -11.528267 -7.355036 2.240420
v -1.115428 10.358225 3.937008
vn -13.640416 -3.322183 2.935383
v 0.261902 7.111539 3.937008
vn -13.640416 -3.322183 2.935383
v 0.176413 3.983920 0.000000
vn -13.640416 -3.322183 2.935383
v 1.105736 3.646874 3.937008
vn -14.076258 -1.118942 3.101777
v 1.105736 3.646874 3.937008
vn -14.076258 -1.118942 3.101777
v 0.526320 0.022292 0.000000
vn -14.076258 -1.118942 3.101777
v 1.389948 0.071504 3.937008
vn -14.076258 1.118942 3.198908
v 1.389948 0.071504 3.937008
vn -14.076258 1.118942 3.198908
v 0.176413 -3.939337 0.000000
vn -14.076258 1.118942 3.198908
v 1.105736 -3.503865 3.937008
vn -13.640415 3.322183 3.212267
v 1.105736 -3.503865 3.937008
vn -13.640415 3.322183 3.212267
v -0.862472 -7.778301 0.000000
vn -13.640415 3.322183 3.212267
v 0.261902 -6.968531 3.937008
vn -12.782228 5.422558 3.085707
v 0.261902 -6.968531 3.937008
vn -12.782228 5.422558 3.085707
v -2.558169 -11.375737 0.000000
vn -12.782228 5.422558 3.085707
v -1.115428 -10.215217 3.937008
vn -11.528263 7.355036 2.730026
v -1.115428 -10.215217 3.937008
vn -11.528263 7.355036 2.730026
v -4.858174 -14.620256 0.000000
vn -11.528263 7.355036 2.730026
v -2.983607 -13.143395 3.937008
vn -9.917354 9.059780 1.323520
v -2.983607 -13.143395 3.937008
vn -9.917354 9.059780 1.323520
v -4.858174 -14.620256 0.000000
vn -9.917354 9.059780 1.323520
v -5.284791 -15.662403 3.937008
vn -7.999375 10.484009 0.232113
v -5.284791 -15.662403 3.937008
vn -7.999375 10.484009 0.232113
v -7.691273 -17.411402 0.000000
vn -7.999375 10.484009 0.232113
v -7.947730 -17.694244 3.937008
vn 0.622847 -17.651897 8.347857
v -7.947730 -17.694244 3.937008
vn 0.622847 -17.651897 8.347857
v -10.969744 -19.662748 0.000000
vn 0.622847 -17.651897 8.347857
v -3.464148 -17.536041 3.937008
vn 6.015590 -16.810471 5.298274
v -3.464148 -17.536041 3.937008
vn 6.015590 -16.810471 5.298274
v -5.449790 -19.487453 0.000000
vn 6.015590 -16.810471 5.298274
v 0.805712 -16.008081 3.937008
vn 10.940360 -14.661298 3.877114
v 0.805712 -16.008081 3.937008
vn 10.940360 -14.661298 3.877114
v -0.192961 -17.794422 0.000000
vn 10.940360 -14.661298 3.877114
v 4.529682 -13.229230 3.937008
vn 15.014032 -11.371566 5.122795
v 7.418059 -9.415666 3.937008
vn 15.014032 -11.371566 5.122795
v 4.529682 -13.229230 3.937008
vn 15.014032 -11.371566 5.122795
v 7.947817 -10.489808 0.000000
vn 17.919714 -7.197196 5.399284
v 9.246147 -4.864058 3.937008
vn 17.919714 -7.197196 5.399284
v 7.418059 -9.415666 3.937008
vn 17.919714 -7.197196 5.399284
v 10.198464 -5.446476 0.000000
vn 19.431349 -2.462935 5.444699
v 9.871733 0.071504 3.937008
vn 19.431349 -2.462935 5.444699
v 9.246147 -4.864058 3.937008
vn 19.431349 -2.462935 5.444699
v 10.968652 0.022292 0.000000
vn 19.431349 2.462935 5.003000
v 10.198464 5.491059 0.000000
vn 19.431349 2.462935 5.003000
v 9.246147 5.007067 3.937008
vn 19.431349 2.462935 5.003000
v 9.871733 0.071504 3.937008
vn 17.919714 7.197196 4.194946
v 7.947817 10.534390 0.000000
vn 17.919714 7.197196 4.194946
v 7.418059 9.558674 3.937008
vn 17.919714 7.197196 4.194946
v 9.246147 5.007067 3.937008
vn 15.014032 11.371566 3.482393
v 4.391797 14.759947 0.000000
vn 15.014032 11.371566 3.482393
v 4.529682 13.372238 3.937008
vn 15.014032 11.371566 3.482393
v 7.418059 9.558674 3.937008
vn 10.940356 14.661298 4.784623
v 4.529682 13.372238 3.937008
vn 10.940356 14.661298 4.784623
v 4.391797 14.759947 0.000000
vn 10.940356 14.661298 4.784623
v 0.805712 16.151089 3.937008
vn 6.015590 16.810471 5.681240
v 0.805712 16.151089 3.937008
vn 6.015590 16.810471 5.681240
v -0.192961 17.839006 0.000000
vn 6.015590 16.810471 5.681240
v -3.464148 17.679049 3.937008
vn 0.622847 17.651897 7.993886
v -3.464148 17.679049 3.937008
vn 0.622847 17.651897 7.993886
v -5.449790 19.532036 0.000000
vn 0.622847 17.651897 7.993886
v -7.947730 17.837252 3.937008
vn -7.999372 -10.484009 1.160345
v -7.947730 17.837252 3.937008
vn -7.999372 -10.484009 1.160345
v -10.969744 19.707331 0.000000
vn -7.999372 -10.484009 1.160345
v -5.284791 15.805411 3.937008
vn -12.782227 -5.422558 2.670731
v -1.115428 10.358225 3.937008
vn -12.782227 -5.422558 2.670731
v -0.862472 7.822885 0.000000
vn -12.782227 -5.422558 2.670731
v 0.261902 7.111539 3.937008
# 192 vertices, 0 vertices normals

f 1//1 2//2 3//3
f 4//4 5//5 6//6
f 7//7 8//8 9//9
f 8//8 7//7 10//10
f 10//10 7//7 11//11
f 10//10 11//11 12//12
f 12//12 11//11 13//13
f 13//13 11//11 14//14
f 14//14 11//11 15//15
f 14//14 15//15 16//16
f 17//17 18//18 19//19
f 18//18 17//17 20//20
f 18//18 20//20 21//21
f 21//21 20//20 22//22
f 21//21 22//22 23//23
f 21//21 23//23 24//24
f 21//21 24//24 25//25
f 25//25 24//24 16//16
f 25//25 16//16 15//15
f 25//25 15//15 26//26
f 25//25 26//26 27//27
f 27//27 26//26 28//28
f 27//27 28//28 29//29
f 29//29 28//28 30//30
f 31//31 32//32 33//33
f 34//34 35//35 36//36
f 35//35 34//34 37//37
f 37//37 34//34 38//38
f 37//37 38//38 39//39
f 39//39 38//38 40//40
f 40//40 38//38 41//41
f 41//41 38//38 42//42
f 41//41 42//42 43//43
f 43//43 42//42 44//44
f 44//44 42//42 45//45
f 45//45 42//42 46//46
f 45//45 46//46 47//47
f 47//47 46//46 48//48
f 47//47 48//48 49//49
f 50//50 51//51 52//52
f 51//51 50//50 53//53
f 51//51 53//53 54//54
f 54//54 53//53 55//55
f 54//54 55//55 56//56
f 54//54 56//56 57//57
f 54//54 57//57 44//44
f 44//44 57//57 43//43
f 58//58 59//59 60//60
f 61//61 62//62 63//63
f 64//64 65//65 66//66
f 67//67 68//68 69//69
f 70//70 71//71 72//72
f 73//73 74//74 75//75
f 76//76 77//77 78//78
f 79//79 80//80 81//81
f 82//82 83//83 84//84
f 85//85 86//86 87//87
f 88//88 89//89 90//90
f 91//91 92//92 93//93
f 94//94 95//95 96//96
f 97//97 98//98 99//99
f 100//100 101//101 102//102
f 103//103 104//104 105//105
f 106//106 107//107 108//108
f 109//109 110//110 111//111
f 112//112 113//113 114//114
f 115//115 116//116 117//117
f 118//118 119//119 120//120
f 121//121 122//122 123//123
f 124//124 125//125 126//126
f 127//127 128//128 129//129
f 130//130 131//131 132//132
f 133//133 134//134 135//135
f 136//136 137//137 138//138
f 139//139 140//140 141//141
f 142//142 143//143 144//144
f 145//145 146//146 147//147
f 148//148 149//149 150//150
f 151//151 152//152 153//153
f 154//154 155//155 156//156
f 157//157 158//158 159//159
f 160//160 161//161 162//162
f 163//163 164//164 165//165
f 166//166 167//167 168//168
f 169//169 170//170 171//171
f 172//172 173//173 174//174
f 175//175 176//176 177//177
f 178//178 179//179 180//180
f 181//181 182//182 183//183
f 184//184 185//185 186//186
f 187//187 188//188 189//189
f 190//190 191//191 192//192
# 92 faces, 0 coords texture

# End of File