####
#
# OBJ File Generated by Meshlab
#
####
# Object triangle.obj
#
# Vertices: 18
# Faces: 8
#
####
vn 0.000000 0.000000 -1026.992310
v 17.218222 -9.940945 0.000000
vn 0.000000 0.000000 -1026.992310
v -17.218222 -9.940945 0.000000
vn 0.000000 0.000000 -1026.992310
v 0.000000 19.881889 0.000000
vn 0.000000 -132.552261 70.506500
v 15.342970 -8.858268 2.035433
vn 0.000000 -132.552261 70.506500
v -17.218222 -9.940945 0.000000
vn 0.000000 -70.093079 37.283543
v 17.218222 -9.940945 0.000000
vn 0.000000 -62.459175 33.222958
v -15.342970 -8.858268 2.035433
vn -114.793617 66.276131 70.506508
v -15.342970 -8.858268 2.035433
vn -114.793617 66.276131 70.506508
v 0.000000 19.881889 0.000000
vn -60.702381 35.046539 37.283550
v -17.218222 -9.940945 0.000000
vn -54.091232 31.229588 33.222958
v 0.000000 17.716536 2.035433
vn 114.793617 66.276131 70.506508
v 0.000000 19.881889 0.000000
vn 114.793617 66.276131 70.506508
v 15.342970 -8.858268 2.035433
vn 60.702381 35.046539 37.283550
v 17.218222 -9.940945 0.000000
vn 54.091232 31.229588 33.222958
v 0.000000 17.716536 2.035433
vn 0.000000 0.000000 815.472839
v 15.342970 -8.858268 2.035433
vn 0.000000 0.000000 815.472839
v 0.000000 17.716536 2.035433
vn 0.000000 0.000000 815.472839
v -15.342970 -8.858268 2.035433
# 18 vertices, 0 vertices normals

f 1//1 2//2 3//3
f 4//4 5//5 6//6
f 5//5 4//4 7//7
f 8//8 9//9 10//10
f 9//9 8//8 11//11
f 12//12 13//13 14//14
f 13//13 12//12 15//15
f 16//16 17//17 18//18
# 8 faces, 0 coords texture

# End of File